<svg xmlns="http://www.w3.org/2000/svg" width="624" height="966" viewBox="86 34 208 322" role="img">
<title>GallaMijos - logo completo</title>
<desc>Escudo angular azul y blanco con ocho estrellas, balon de futbol americano y monograma GM en rojo, con el nombre GALLAMIJOS y la leyenda est. 2015.</desc>
<defs><clipPath id="ang"><path d="M112,42 L268,42 L282,56 L282,152 C282,214 244,258 190,288 C136,258 98,214 98,152 L98,56 Z" transform="translate(190,160) scale(0.93) translate(-190,-160)"/></clipPath></defs>
<path d="M112,42 L268,42 L282,56 L282,152 C282,214 244,258 190,288 C136,258 98,214 98,152 L98,56 Z" fill="#013369" stroke="#FFFFFF" stroke-width="4"/>
<rect x="90" y="152" width="200" height="150" fill="#FFFFFF" clip-path="url(#ang)"/>
<g fill="#FFFFFF">
<polygon points="0,-11 2.6,-3.6 10.5,-3.4 4.2,1.4 6.5,8.9 0,4.4 -6.5,8.9 -4.2,1.4 -10.5,-3.4 -2.6,-3.6" transform="translate(121,84)"/>
<polygon points="0,-11 2.6,-3.6 10.5,-3.4 4.2,1.4 6.5,8.9 0,4.4 -6.5,8.9 -4.2,1.4 -10.5,-3.4 -2.6,-3.6" transform="translate(150,77)"/>
<polygon points="0,-11 2.6,-3.6 10.5,-3.4 4.2,1.4 6.5,8.9 0,4.4 -6.5,8.9 -4.2,1.4 -10.5,-3.4 -2.6,-3.6" transform="translate(124,119)"/>
<polygon points="0,-11 2.6,-3.6 10.5,-3.4 4.2,1.4 6.5,8.9 0,4.4 -6.5,8.9 -4.2,1.4 -10.5,-3.4 -2.6,-3.6" transform="translate(153,116)"/>
<polygon points="0,-11 2.6,-3.6 10.5,-3.4 4.2,1.4 6.5,8.9 0,4.4 -6.5,8.9 -4.2,1.4 -10.5,-3.4 -2.6,-3.6" transform="translate(259,84)"/>
<polygon points="0,-11 2.6,-3.6 10.5,-3.4 4.2,1.4 6.5,8.9 0,4.4 -6.5,8.9 -4.2,1.4 -10.5,-3.4 -2.6,-3.6" transform="translate(230,77)"/>
<polygon points="0,-11 2.6,-3.6 10.5,-3.4 4.2,1.4 6.5,8.9 0,4.4 -6.5,8.9 -4.2,1.4 -10.5,-3.4 -2.6,-3.6" transform="translate(256,119)"/>
<polygon points="0,-11 2.6,-3.6 10.5,-3.4 4.2,1.4 6.5,8.9 0,4.4 -6.5,8.9 -4.2,1.4 -10.5,-3.4 -2.6,-3.6" transform="translate(227,116)"/>
</g>
<g transform="rotate(18 190 98)">
<path d="M190,54 C207,72 213,88 213,98 C213,108 207,124 190,142 C173,124 167,108 167,98 C167,88 173,72 190,54 Z" fill="#FFFFFF"/>
<path d="M190,80 L190,120" stroke="#013369" stroke-width="3" stroke-linecap="round"/>
<path d="M184,84 L196,84 M182,92 L198,92 M181,100 L199,100 M182,108 L198,108 M184,116 L196,116" stroke="#013369" stroke-width="2.5" stroke-linecap="round"/>
</g>
<path d="M161.48974609375 236.546875Q148.60400390625 236.546875 148.60400390625 218.08984375V192.1474609375Q148.60400390625 175.296875 163.36962890625 175.296875Q169.45361328125 175.296875 172.70068359375 177.74072265625Q175.94775390625 180.1845703125 177.17822265625 184.8671875Q178.40869140625 189.5498046875 178.40869140625 196.283203125H166.65087890625V190.951171875Q166.65087890625 189.0029296875 166.12109375 187.68701171875Q165.59130859375 186.37109375 163.91650390625 186.37109375Q161.83154296875 186.37109375 161.1650390625 187.7724609375Q160.49853515625 189.173828125 160.49853515625 190.8486328125V220.00390625Q160.49853515625 222.4306640625 161.130859375 223.95166015625Q161.76318359375 225.47265625 163.60888671875 225.47265625Q165.52294921875 225.47265625 166.1552734375 223.95166015625Q166.78759765625 222.4306640625 166.78759765625 219.935546875V211.3564453125H163.57470703125V200.9658203125H178.27197265625V236.0H173.45263671875L171.40185546875 230.94140625Q168.25732421875 236.546875 161.48974609375 236.546875Z M184.02294921875 236.0V175.84375H202.34326171875L207.40185546875 212.5185546875L212.42626953125 175.84375H230.91748046875V236.0H219.91162109375V192.66015625L213.00732421875 236.0H202.20654296875L194.89208984375 192.66015625V236.0Z" fill="#D50A0A"/>
<path d="M113.98876953125 328.265625Q107.72998046875 328.265625 107.72998046875 319.30078125V306.7001953125Q107.72998046875 298.515625 114.90185546875 298.515625Q117.85693359375 298.515625 119.43408203125 299.70263671875Q121.01123046875 300.8896484375 121.60888671875 303.1640625Q122.20654296875 305.4384765625 122.20654296875 308.708984375H116.49560546875V306.119140625Q116.49560546875 305.1728515625 116.23828125 304.53369140625Q115.98095703125 303.89453125 115.16748046875 303.89453125Q114.15478515625 303.89453125 113.8310546875 304.5751953125Q113.50732421875 305.255859375 113.50732421875 306.0693359375V320.23046875Q113.50732421875 321.4091796875 113.814453125 322.14794921875Q114.12158203125 322.88671875 115.01806640625 322.88671875Q115.94775390625 322.88671875 116.2548828125 322.14794921875Q116.56201171875 321.4091796875 116.56201171875 320.197265625V316.0302734375H115.00146484375V310.9833984375H122.14013671875V328.0H119.79931640625L118.80322265625 325.54296875Q117.27587890625 328.265625 113.98876953125 328.265625Z M124.65087890625 328.0 127.47314453125 298.78125H137.38427734375L140.15673828125 328.0H134.62841796875L134.21337890625 323.28515625H130.69384765625L130.32861328125 328.0ZM131.10888671875 318.6201171875H133.76513671875L132.48681640625 303.76171875H132.22119140625Z M142.94970703125 328.0V298.78125H148.79345703125V323.01953125H154.80322265625V328.0Z M157.46337890625 328.0V298.78125H163.30712890625V323.01953125H169.31689453125V328.0Z M171.18017578125 328.0 174.00244140625 298.78125H183.91357421875L186.68603515625 328.0H181.15771484375L180.74267578125 323.28515625H177.22314453125L176.85791015625 328.0ZM177.63818359375 318.6201171875H180.29443359375L179.01611328125 303.76171875H178.75048828125Z M189.47900390625 328.0V298.78125H198.37744140625L200.83447265625 316.5947265625L203.27490234375 298.78125H212.25634765625V328.0H206.91064453125V306.94921875L203.55712890625 328.0H198.31103515625L194.75830078125 306.94921875V328.0Z M215.58056640625 328.0V298.78125H221.22509765625V328.0Z M231.02392578125 328.265625Q229.04833984375 328.265625 227.42138671875 327.501953125Q225.79443359375 326.73828125 224.83984375 325.23583984375Q223.88525390625 323.7333984375 223.88525390625 321.5419921875V314.220703125H229.66259765625V321.193359375Q229.66259765625 321.95703125 229.9697265625 322.421875Q230.27685546875 322.88671875 230.95751953125 322.88671875Q232.26904296875 322.88671875 232.26904296875 321.2763671875V298.78125H238.16259765625V320.6953125Q238.16259765625 323.01953125 237.24951171875 324.72119140625Q236.33642578125 326.4228515625 234.72607421875 327.34423828125Q233.11572265625 328.265625 231.02392578125 328.265625Z M248.37646484375 328.265625Q244.87353515625 328.265625 243.0224609375 326.14892578125Q241.17138671875 324.0322265625 241.17138671875 320.03125V306.15234375Q241.17138671875 302.400390625 243.005859375 300.4580078125Q244.84033203125 298.515625 248.37646484375 298.515625Q251.91259765625 298.515625 253.7470703125 300.4580078125Q255.58154296875 302.400390625 255.58154296875 306.15234375V320.03125Q255.58154296875 324.0322265625 253.73046875 326.14892578125Q251.87939453125 328.265625 248.37646484375 328.265625ZM248.42626953125 322.88671875Q249.75439453125 322.88671875 249.75439453125 320.3134765625V306.052734375Q249.75439453125 303.89453125 248.45947265625 303.89453125Q246.99853515625 303.89453125 246.99853515625 306.1025390625V320.3466796875Q246.99853515625 321.7080078125 247.33056640625 322.29736328125Q247.66259765625 322.88671875 248.42626953125 322.88671875Z M265.87841796875 328.265625Q261.87744140625 328.265625 260.109375 326.2734375Q258.34130859375 324.28125 258.34130859375 319.931640625V317.076171875H264.11865234375V320.728515625Q264.11865234375 321.7412109375 264.42578125 322.31396484375Q264.73291015625 322.88671875 265.49658203125 322.88671875Q266.29345703125 322.88671875 266.6005859375 322.421875Q266.90771484375 321.95703125 266.90771484375 320.89453125Q266.90771484375 319.5498046875 266.64208984375 318.64501953125Q266.37646484375 317.740234375 265.720703125 316.91845703125Q265.06494140625 316.0966796875 263.90283203125 315.0009765625L261.27978515625 312.5107421875Q258.34130859375 309.73828125 258.34130859375 306.1689453125Q258.34130859375 302.43359375 260.076171875 300.474609375Q261.81103515625 298.515625 265.09814453125 298.515625Q269.11572265625 298.515625 270.80078125 300.6572265625Q272.48583984375 302.798828125 272.48583984375 307.1650390625H266.54248046875V305.15625Q266.54248046875 304.55859375 266.2021484375 304.2265625Q265.86181640625 303.89453125 265.28076171875 303.89453125Q264.58349609375 303.89453125 264.259765625 304.28466796875Q263.93603515625 304.6748046875 263.93603515625 305.2890625Q263.93603515625 305.9033203125 264.26806640625 306.6171875Q264.60009765625 307.3310546875 265.57958984375 308.2607421875L268.94970703125 311.498046875Q269.96240234375 312.4609375 270.80908203125 313.53173828125Q271.65576171875 314.6025390625 272.17041015625 316.02197265625Q272.68505859375 317.44140625 272.68505859375 319.4833984375Q272.68505859375 323.6005859375 271.166015625 325.93310546875Q269.64697265625 328.265625 265.87841796875 328.265625Z" fill="#D50A0A"/>
<path d="M151.47702734375 348.10838671875Q150.69199414062498 348.10838671875 150.198447265625 347.81516015625004Q149.704900390625 347.52193359375 149.47206347656248 346.95348046875Q149.2392265625 346.38502734375 149.2392265625 345.571734375V343.492265625Q149.2392265625 342.661166015625 149.47496679687498 342.098712890625Q149.71070703125 341.536259765625 150.21025390625 341.24593652343754Q150.70980078124998 340.95561328125 151.47702734375 340.95561328125Q152.297287109375 340.95561328125 152.76083398437498 341.26606640625005Q153.224380859375 341.57651953125 153.4214111328125 342.17090917968756Q153.61844140624999 342.765298828125 153.61844140624999 343.614205078125V344.605546875H150.85766796874998V345.966580078125Q150.85766796874998 346.30606640625 150.92637792968748 346.52051953125Q150.995087890625 346.73497265625 151.1350244140625 346.8331025390625Q151.2749609375 346.931232421875 151.482833984375 346.931232421875Q151.69651367187498 346.931232421875 151.82793359375 346.830392578125Q151.959353515625 346.729552734375 152.019546875 346.53038964843745Q152.07974023437498 346.3312265625 152.07974023437498 346.0327734375V345.45174609375H153.612634765625V345.9263203125Q153.612634765625 346.976513671875 153.08192773437497 347.54245019531254Q152.55122070312498 348.10838671875 151.47702734375 348.10838671875ZM150.85766796874998 343.79806640625H152.07974023437498V343.13690625Q152.07974023437498 342.785419921875 152.0224501953125 342.5626435546875Q151.96516015625 342.3398671875 151.833740234375 342.2363173828125Q151.70232031249998 342.132767578125 151.46502734375 342.132767578125Q151.23973437499998 342.132767578125 151.108701171875 342.239607421875Q150.97766796874998 342.346447265625 150.91766796874998 342.60174023437503Q150.85766796874998 342.857033203125 150.85766796874998 343.3145859375Z M161.609927734375 348.10838671875Q160.7269609375 348.10838671875 160.16451074218747 347.63941699218753Q159.60206054687498 347.170447265625 159.36903320312499 346.269673828125L160.573287109375 345.809419921875Q160.71883398437498 346.370326171875 160.9623173828125 346.669359375Q161.20580078125 346.968392578125 161.581673828125 346.968392578125Q161.867740234375 346.968392578125 162.0136767578125 346.8230361328125Q162.15961328125 346.6776796875 162.15961328125 346.42838671875Q162.15961328125 346.1407734375 161.98735644531249 345.906966796875Q161.81509960937498 345.67316015625 161.391232421875 345.32206640625L160.55625390625 344.611734375Q160.09716015625 344.219220703125 159.814 343.8073505859375Q159.53083984375 343.39548046875 159.53083984375 342.764900390625Q159.53083984375 342.20670703125 159.79 341.80083691406253Q160.04916015625 341.394966796875 160.4976103515625 341.1752900390625Q160.946060546875 340.95561328125 161.498447265625 340.95561328125Q162.362447265625 340.95561328125 162.880380859375 341.4555498046875Q163.39831445312498 341.955486328125 163.55702148437499 342.761033203125L162.45302734375 343.21509375Q162.39264062499998 342.923220703125 162.278060546875 342.6748974609375Q162.16348046874998 342.42657421875 161.98348046874997 342.27347753906247Q161.80348046875 342.120380859375 161.546447265625 342.120380859375Q161.296380859375 342.120380859375 161.147541015625 342.27773730468755Q160.99870117187498 342.43509375 160.99870117187498 342.667353515625Q160.99870117187498 342.872126953125 161.1696015625 343.0925771484375Q161.340501953125 343.31302734375 161.66875585937498 343.586314453125L162.5149609375 344.355099609375Q162.791734375 344.595486328125 163.0477978515625 344.871873046875Q163.30386132812498 345.148259765625 163.46953808593747 345.49045312500004Q163.63521484375 345.832646484375 163.63521484375 346.276646484375Q163.63521484375 346.87083984375 163.364248046875 347.2823232421875Q163.09328125 347.693806640625 162.6334111328125 347.9010966796875Q162.173541015625 348.10838671875 161.609927734375 348.10838671875Z M171.544640625 348.08361328125Q170.8807734375 348.08361328125 170.50432324218752 347.86722656250004Q170.127873046875 347.65083984375 169.9716796875 347.2447763671875Q169.81548632812502 346.838712890625 169.81548632812502 346.272779296875V342.1389609375H169.114453125V341.064H169.81548632812502V338.992646484375H171.458701171875V341.064H172.50657421875002V342.1389609375H171.458701171875V346.1330390625Q171.458701171875 346.485298828125 171.6123779296875 346.6376220703125Q171.7660546875 346.7899453125 172.082314453125 346.7899453125Q172.20928125 346.7899453125 172.3383779296875 346.77484863281245Q172.46747460937502 346.759751953125 172.58128125000002 346.747751953125V347.9992265625Q172.384634765625 348.029033203125 172.1125078125 348.0563232421875Q171.84038085937502 348.08361328125 171.544640625 348.08361328125Z M178.42941992187502 348.0V346.355232421875H180.0045078125V348.0Z M193.872 348.0V346.82787890625L196.26967968750003 343.118326171875Q196.53948632812504 342.70490625 196.77348632812505 342.33290625Q197.00748632812503 341.96090625 197.15748632812503 341.5623896484375Q197.30748632812504 341.163873046875 197.30748632812504 340.685806640625Q197.30748632812504 340.1438671875 197.11625976562505 339.852767578125Q196.92503320312503 339.56166796875 196.51509375000003 339.56166796875Q196.12722070312503 339.56166796875 195.91238085937505 339.7765078125Q195.69754101562503 339.99134765625 195.61702441406254 340.34360742187505Q195.53650781250002 340.6958671875 195.53650781250002 341.1143203125V341.518833984375H193.91187304687503V341.08993359375Q193.91187304687503 340.220126953125 194.16754980468752 339.565353515625Q194.42322656250002 338.910580078125 194.9854833984375 338.5409033203125Q195.54774023437503 338.1712265625 196.46748046875 338.1712265625Q197.71160742187502 338.1712265625 198.3340576171875 338.843419921875Q198.95650781250004 339.51561328125 198.95650781250004 340.710193359375Q198.95650781250004 341.31561328125 198.78792773437505 341.802193359375Q198.61934765625003 342.2887734375 198.34528417968752 342.7308369140625Q198.07122070312502 343.172900390625 197.75225390625002 343.64825390625L195.75560156250003 346.666072265625H198.70992773437501V348.0Z M207.55109375000004 348.14516015625Q206.69832031250002 348.14516015625 206.13645019531253 347.7824501953125Q205.57458007812502 347.419740234375 205.29490332031253 346.784126953125Q205.01522656250003 346.148513671875 205.01522656250003 345.320513671875V341.021033203125Q205.01522656250003 340.169033203125 205.28270996093752 339.52703320312503Q205.55019335937502 338.885033203125 206.11206347656253 338.52503320312496Q206.67393359375004 338.165033203125 207.55109375000004 338.165033203125Q208.42825390625003 338.165033203125 208.98412402343752 338.52503320312496Q209.53999414062503 338.885033203125 209.80747753906252 339.52703320312503Q210.0749609375 340.169033203125 210.0749609375 341.021033203125V345.320513671875Q210.0749609375 346.148126953125 209.7952841796875 346.7868369140625Q209.51560742187502 347.425546875 208.95664062500003 347.785353515625Q208.39767382812502 348.14516015625 207.55109375000004 348.14516015625ZM207.55109375000004 346.711365234375Q207.92038671875002 346.711365234375 208.09864648437502 346.4876220703125Q208.27690625000002 346.26387890625 208.33593945312504 345.9365859375Q208.39497265625002 345.60929296875 208.39497265625002 345.301546875V341.04Q208.39497265625002 340.70825390625 208.341939453125 340.374767578125Q208.28890625000003 340.04128125 208.11064648437502 339.81715136718753Q207.93238671875002 339.593021484375 207.55109375000004 339.593021484375Q207.16980078125002 339.593021484375 206.98863769531252 339.81715136718753Q206.80747460937502 340.04128125 206.75444140625 340.374767578125Q206.70140820312503 340.70825390625 206.70140820312503 341.04V345.301546875Q206.70140820312503 345.60929296875 206.7635380859375 345.9365859375Q206.82566796875003 346.26387890625 207.00973437500002 346.4876220703125Q207.19380078125002 346.711365234375 207.55109375000004 346.711365234375Z M217.56865234375002 348.0V340.114833984375Q217.49471875 340.15780078125 217.28316894531253 340.223994140625Q217.07161914062502 340.2901875 216.8188427734375 340.3594775390625Q216.56606640625 340.428767578125 216.3543232421875 340.489154296875Q216.142580078125 340.549541015625 216.06245312500002 340.586701171875V339.34838671875Q216.22929296875 339.288 216.4838095703125 339.1823232421875Q216.738326171875 339.076646484375 217.0172294921875 338.93806640624996Q217.29613281250002 338.799486328125 217.5448427734375 338.62877636718747Q217.793552734375 338.45806640625 217.9425859375 338.28H219.22425390625V348.0Z M228.3263203125 348.139353515625Q227.35122656250002 348.139353515625 226.81974316406252 347.7816767578125Q226.288259765625 347.424 226.08174316406252 346.7632265625Q225.87522656250002 346.102453125 225.87522656250002 345.21406640625H227.49366796875Q227.49366796875 345.708 227.559474609375 346.0879365234375Q227.62528125 346.467873046875 227.82212109375 346.675939453125Q228.01896093750003 346.884005859375 228.406060546875 346.8778125Q228.82258007812501 346.871619140625 229.00103320312502 346.5996826171875Q229.17948632812502 346.32774609375 229.22400292968752 345.84290625Q229.26851953125 345.35806640625 229.26851953125 344.710453125Q229.26851953125 344.143353515625 229.2058095703125 343.7278037109375Q229.143099609375 343.31225390625 228.94916308593753 343.07864062500005Q228.7552265625 342.84502734375 228.34993359375002 342.84502734375Q228.00348046875 342.84502734375 227.77083398437503 343.0755439453125Q227.53818750000002 343.306060546875 227.4309609375 343.692380859375H226.010712890625L226.10361328125 338.28H230.47122070312503V339.768380859375H227.496767578125L227.40038085937502 342.103359375Q227.57844726562502 341.894712890625 227.92315722656252 341.7600029296875Q228.2678671875 341.62529296875 228.68670703125002 341.606712890625Q229.45393359375 341.563359375 229.93490039062502 341.92606933593754Q230.41586718750003 342.288779296875 230.63902734375 342.973939453125Q230.8621875 343.659099609375 230.8621875 344.60438671875Q230.8621875 345.366966796875 230.760380859375 346.01516015625Q230.65857421875 346.663353515625 230.3854775390625 347.137353515625Q230.112380859375 347.611353515625 229.6134140625 347.87535351562497Q229.11444726562502 348.139353515625 228.3263203125 348.139353515625Z" fill="#D50A0A"/>
</svg>
